<svg xmlns="http://www.w3.org/2000/svg" width="77" height="77" viewBox="0 0 77 77">
  <g id="Group_204" data-name="Group 204" transform="translate(-501 -453)">
    <circle id="Ellipse_28" data-name="Ellipse 28" cx="38.5" cy="38.5" r="38.5" transform="translate(501 453)" fill="#f3f3f3"/>
    <circle id="Ellipse_27" data-name="Ellipse 27" cx="35.5" cy="35.5" r="35.5" transform="translate(504 456)" fill="gray"/>
    <path id="rgba_0_0_0_1_" data-name="rgba(0,0,0,1)" d="M36.274,0l3.735.145.144.145H41.3l.144.145,2.586.29,3.448.869L51.359,3.04A37.326,37.326,0,0,1,63.642,11.8,36.839,36.839,0,0,1,71.4,24.537l.862,2.75.862,4.053.144,2.316.144.145.144,3.764-.144.145v2.606l-.144.145v1.158l-.144.145-.287,2.606-.862,3.474-1.437,3.909a37.6,37.6,0,0,1-8.691,12.377A36.466,36.466,0,0,1,49.2,71.946l-2.73.869-4.022.869-2.3.145-.144.145-3.735.145-.144-.145H33.545l-.144-.145H32.252l-.144-.145-2.586-.29-3.448-.869L22.2,71.078A37.326,37.326,0,0,1,9.913,62.32,36.839,36.839,0,0,1,2.155,49.581l-.862-2.75L.431,42.777.287,40.461l-.144-.145L0,36.552l.144-.145V33.8l.144-.145V32.5l.144-.145.287-2.606.862-3.474,1.437-3.909A37.6,37.6,0,0,1,11.708,9.989,35.592,35.592,0,0,1,22.2,3.04l3.879-1.448L29.522.724l2.586-.29L32.252.29H33.4l.144-.145h2.586ZM34.335,15.634a10.077,10.077,0,0,0-4.166,2.171,8.893,8.893,0,0,0-2.586,3.04l-.718,1.882q.287.869-.144,1.158V26.2l.144.145.144,2.316.144.145v.724l-.718,1.158.431,2.75.862,1.592.431,2.171c.67,1.737.776,2.792,2.73,4.777a16.339,16.339,0,0,0,5.086,3.163l.086.022a5.382,5.382,0,0,0,1.437,0,3.15,3.15,0,0,0,1.58-.434,16.225,16.225,0,0,0,2.442-1.448,16.824,16.824,0,0,0,3.592-4.632l.862-2.171.287-1.592.718-1.013.431-1.737V30.255l-.431-.724.575-2.606V23.741l-.718-2.316-.718-1.158a7.848,7.848,0,0,0-3.879-2.9l-5.172-1.592ZM30.456,43.863A8.8,8.8,0,0,1,27.3,46.324L23.56,47.916l-2.442.724L19.107,49.8l-1.293,1.448a23.936,23.936,0,0,0-1.724,4.2l-1.006,4.488-.575,4.777a33.961,33.961,0,0,0,10.2,5.79l3.161,1.013,2.586.579,2.873.29.144.145h2.155l.144.145,4.453-.145.144-.145,2.011-.145,3.448-.724L48.988,70.5a34.382,34.382,0,0,0,10.056-5.79l-.575-4.777-1.006-4.488a16.909,16.909,0,0,0-2.011-4.632l-1.724-1.592-4.741-2.027L46.4,46.324l-3.3-2.171a18.855,18.855,0,0,1-3.017,2.027A6.11,6.11,0,0,1,37.5,46.9a2.89,2.89,0,0,1-1.58,0,7.458,7.458,0,0,1-1.58-.434A23.467,23.467,0,0,1,30.456,43.863Z" transform="translate(502.535 454.539)" fill="#f3f3f3"/>
  </g>
</svg>
